<?xml version="1.0" encoding="UTF-8"?><svg id="Layer_2" xmlns="http://www.w3.org/2000/svg" viewBox="0 0 298.25 275.94"><g id="Layer_1-2"><path d="M264.38,79.56v-20.71l-73.77,73.77-1.93,1.93-113.9,113.9-27.49,27.49,38.8-21.83c4.1,1.89,8.33,3.66,12.69,5.33l165.6-165.6,33.87-33.87-33.87,19.59Z" style="fill:#c2b280;"/><path d="M130.16,268.94l2.03.47,2.04-.47c29.29-6.82,54.36-17.78,74.51-32.56,16.34-11.99,29.48-26.49,39.05-43.09,16.41-28.48,16.6-53.3,16.6-54.34v-9.11l-138.15,138.15c1.3.32,2.6.65,3.92.96" style="fill:#c2b280;"/><path d="M32.63,185.15c-3.49-5.93-6.14-11.7-8.17-17.03h59.12l-36.58,36.58c-5.46-6.04-10.26-12.55-14.37-19.55M17.94,138.94v-6.71h101.53l-17.94,17.94H19.33c-1.32-6.87-1.39-11.15-1.39-11.23M17.94,17.94h118.83v96.34H17.94V17.94ZM154.72,17.94h17.94v61.09l-17.94,17.94V17.94ZM190.61,17.94h43.14l-43.14,43.14V17.94ZM119.13,168.12l17.94-17.94,15.62-15.62,2.03-2.03,17.94-17.95,17.94-17.94,73.77-73.77V0H0v138.94c0,.41.03,4.58,1.1,11.23.77,4.83,2.09,10.97,4.33,17.94,2.45,7.61,6.01,16.21,11.17,25.17,9.03,15.67,21.24,29.46,36.32,41.04l66.2-66.2Z" style="fill:#c2b280;"/><path d="M88.43,67.6l-4.33,4.33,4.33,4.33-5.77,5.77,20.69,20.69c2.89,2.89,7.22,2.89,10.1,0,2.89-2.89,2.89-7.22,0-10.1l-25.02-25.02ZM107.19,100.32c-1.92,0-3.85-1.44-3.85-3.85,0-1.92,1.44-3.85,3.85-3.85s3.85,1.44,3.85,3.85-1.44,3.85-3.85,3.85Z" style="fill:#4479aa;"/><path d="M56.19,66.63l4.33-2.89,7.22-8.18,4.33,4.33,4.33-4.33-.48-.48c.96-2.41,1.44-4.81,1.44-7.7,0-10.59-8.66-19.25-19.25-19.25-2.89,0-5.29.48-7.7,1.44l13.95,13.95-10.1,10.1-13.95-13.95c-.96,2.41-1.44,4.81-1.44,7.7,0,10.1,7.7,17.8,17.32,19.25h0Z" style="fill:#4479aa;"/><path d="M77.36,80.11l4.33-3.85-4.33-4.33,27.43-27.43,5.77-1.92,5.29-10.59-3.37-3.37-11.07,4.81-2.41,5.77-26.95,27.43-4.33-4.33-3.85,4.33s3.85,2.89-.48,7.22c-2.41,2.41-6.26-.48-13.47,6.74-2.41,2.41-10.1,10.1-10.1,10.1,0,0-2.89,4.81,2.89,10.59s10.59,2.89,10.59,2.89c0,0,7.7-7.7,10.1-10.1,6.74-6.74,4.33-11.07,6.26-12.99,4.33-4.33,7.7-.96,7.7-.96h0ZM62.44,78.18l3.37,3.37-18.28,18.28-3.37-3.37,18.28-18.28Z" style="fill:#4479aa;"/></g></svg>