<?xml version="1.0" encoding="UTF-8"?><svg id="Layer_2" xmlns="http://www.w3.org/2000/svg" viewBox="0 0 858.4 276.01"><g id="Layer_1-2"><path d="M264.38,79.63v-20.71l-73.77,73.77-1.93,1.93-113.9,113.9-27.49,27.49,38.8-21.83c4.1,1.89,8.33,3.66,12.69,5.33l165.6-165.6,33.87-33.87-33.87,19.59Z" style="fill:#c2b280;"/><path d="M130.16,269l2.03.47,2.04-.47c29.29-6.82,54.36-17.78,74.51-32.56,16.34-11.99,29.48-26.49,39.05-43.09,16.41-28.48,16.6-53.3,16.6-54.34v-9.11l-138.15,138.15c1.3.32,2.6.65,3.92.96" style="fill:#c2b280;"/><path d="M32.63,185.21c-3.49-5.93-6.14-11.7-8.17-17.03h59.12l-36.58,36.58c-5.46-6.04-10.26-12.55-14.37-19.55M17.94,139.01v-6.71h101.53l-17.94,17.94H19.33c-1.32-6.87-1.39-11.15-1.39-11.23M17.94,18.01h118.83v96.34H17.94V18.01ZM154.72,18.01h17.94v61.09l-17.94,17.94V18.01ZM190.61,18.01h43.14l-43.14,43.14V18.01ZM119.13,168.18l17.94-17.94,15.62-15.62,2.03-2.03,17.94-17.95,17.94-17.94,73.77-73.77V.07H0v138.94c0,.41.03,4.58,1.1,11.23.77,4.83,2.09,10.97,4.33,17.94,2.45,7.61,6.01,16.21,11.17,25.17,9.03,15.67,21.24,29.46,36.32,41.04l66.2-66.2Z" style="fill:#c2b280;"/><path d="M88.43,67.66l-4.33,4.33,4.33,4.33-5.77,5.77,20.69,20.69c2.89,2.89,7.22,2.89,10.1,0,2.89-2.89,2.89-7.22,0-10.1l-25.02-25.02ZM107.19,100.38c-1.92,0-3.85-1.44-3.85-3.85,0-1.92,1.44-3.85,3.85-3.85s3.85,1.44,3.85,3.85-1.44,3.85-3.85,3.85Z" style="fill:#4479aa;"/><path d="M56.19,66.7l4.33-2.89,7.22-8.18,4.33,4.33,4.33-4.33-.48-.48c.96-2.41,1.44-4.81,1.44-7.7,0-10.59-8.66-19.25-19.25-19.25-2.89,0-5.29.48-7.7,1.44l13.95,13.95-10.1,10.1-13.95-13.95c-.96,2.41-1.44,4.81-1.44,7.7,0,10.1,7.7,17.8,17.32,19.25h0Z" style="fill:#4479aa;"/><path d="M77.36,80.17l4.33-3.85-4.33-4.33,27.43-27.43,5.77-1.92,5.29-10.59-3.37-3.37-11.07,4.81-2.41,5.77-26.95,27.43-4.33-4.33-3.85,4.33s3.85,2.89-.48,7.22c-2.41,2.41-6.26-.48-13.47,6.74-2.41,2.41-10.1,10.1-10.1,10.1,0,0-2.89,4.81,2.89,10.59s10.59,2.89,10.59,2.89c0,0,7.7-7.7,10.1-10.1,6.74-6.74,4.33-11.07,6.26-12.99,4.33-4.33,7.7-.96,7.7-.96h0ZM62.44,78.25l3.37,3.37-18.28,18.28-3.37-3.37,18.28-18.28Z" style="fill:#4479aa;"/><path d="M309.18,222.98h19.42v-31.91h-19.42v31.91ZM309.18,155.42v28.71h70.75v-19.42h-51.33v-9.29c0-7.36,2.77-10.13,10.13-10.13h50.91v-19.42h-50.91c-16.78,0-29.55,12.77-29.55,29.55ZM400.74,155.42v28.71h19.42v-28.71c0-7.36,2.77-10.13,10.13-10.13h21.36c7.36,0,10.13,2.77,10.13,10.13v38.01c0,7.36-2.77,10.13-10.13,10.13h-21.36c-7.36,0-10.13-2.77-10.13-10.13v-2.36h-19.42v2.36c0,16.78,12.77,29.55,29.55,29.55h21.36c16.78,0,29.55-12.77,29.55-29.55v-38.01c0-16.78-12.77-29.55-29.55-29.55h-21.36c-16.78,0-29.55,12.77-29.55,29.55ZM543.21,125.87h-50.91v58.27h50.91c7.36,0,10.13,2.77,10.13,10.13v28.71h19.42v-28.71c0-7.64-2.64-14.58-7.22-19.71,4.58-5,7.22-11.65,7.22-19.13,0-16.78-12.77-29.55-29.55-29.55ZM492.3,191.07v31.91h19.42v-31.91h-19.42ZM543.21,164.72h-31.49v-19.42h31.49c7.36,0,10.13,2.77,10.13,10.13,0,6.81-2.64,9.29-10.13,9.29ZM664.32,184.14v-19.42h-43.01v19.42h43.01ZM583.86,155.42v38.01c0,16.78,12.77,29.55,29.55,29.55h21.36c16.78,0,29.55-12.77,29.55-29.55v-2.49h-19.42v2.49c0,7.36-2.77,10.13-10.13,10.13h-21.36c-7.36,0-10.13-2.77-10.13-10.13v-38.01c0-7.36,2.77-10.13,10.13-10.13h50.91v-19.42h-50.91c-16.78,0-29.55,12.77-29.55,29.55ZM704.97,223.11h50.91v-19.42h-50.91c-7.36,0-10.13-2.77-10.13-10.13v-2.49h-19.42v2.49c0,16.8,12.77,29.55,29.55,29.55ZM675.42,125.87v58.27h70.75v-19.42h-51.33v-19.42h61.04v-19.42h-80.46Z" style="fill:#4479aa;"/><path d="M371.58,99.06h19.81V30.15c0-17.12-13.03-30.15-30.15-30.15h-21.79c-17.12,0-30.15,13.03-30.15,30.15v68.92h19.81V30.15c0-7.5,2.83-10.33,10.33-10.33h21.79c7.5,0,10.33,2.83,10.33,10.33v9.48h-35.38v19.81h35.38v39.63ZM484.79,59.44v-19.81h-43.87v19.81h43.87ZM402.71,30.15v38.77c0,17.12,13.03,30.15,30.15,30.15h21.79c17.12,0,30.15-13.03,30.15-30.15v-2.54h-19.81v2.54c0,7.5-2.83,10.33-10.33,10.33h-21.79c-7.5,0-10.33-2.83-10.33-10.33V30.15c0-7.5,2.83-10.33,10.33-10.33h51.93V0h-51.93c-17.12,0-30.15,13.03-30.15,30.15ZM526.26,99.2h51.93v-19.81h-51.93c-7.5,0-10.33-2.83-10.33-10.33v-2.54h-19.81v2.54c0,17.14,13.03,30.15,30.15,30.15ZM496.12,0v59.44h72.17v-19.81h-52.36v-19.81h62.27V0h-82.08ZM589.52,99.06h19.81v-32.55h-19.81v32.55ZM589.52,30.15v29.29h19.81v-29.29c0-7.5,2.83-10.33,10.33-10.33h21.79c7.5,0,10.33,2.83,10.33,10.33v68.92h19.81V30.15c0-17.12-13.03-30.15-30.15-30.15h-21.79c-17.12,0-30.15,13.03-30.15,30.15ZM745.19,30.15v2.4h19.81v-2.4c0-17.12-13.03-30.15-30.15-30.15h-21.79c-17.12,0-30.15,13.03-30.15,30.15v38.77c0,17.12,13.03,30.15,30.15,30.15h21.79c17.12,0,30.15-13.03,30.15-30.15v-2.54h-19.81v2.54c0,7.5-2.83,10.33-10.33,10.33h-21.79c-7.5,0-10.33-2.83-10.33-10.33V30.15c0-7.5,2.83-10.33,10.33-10.33h21.79c7.5,0,10.33,2.83,10.33,10.33ZM796.14,29.29V0h-19.81v29.29c0,17.12,13.03,30.15,30.15,30.15h21.79c17.12,0,30.15-13.03,30.15-30.15V0h-19.81v29.29c0,7.5-2.83,10.33-10.33,10.33h-21.79c-7.5,0-10.33-2.83-10.33-10.33ZM807.46,66.51v32.55h19.81v-32.55h-19.81Z" style="fill:#c2b280;"/></g></svg>